<svg id="visual" viewBox="0 0 2000 1000" width="2000" height="1000" xmlns="http://www.w3.org/2000/svg" xmlns:xlink="http://www.w3.org/1999/xlink" version="1.1"><rect x="0" y="0" width="2000" height="1000" fill="rgba(255,255,255,0.7)"></rect><path d="M0 604L83.3 599.2C166.7 594.3 333.3 584.7 500 586C666.7 587.3 833.3 599.7 1000 621.7C1166.7 643.7 1333.3 675.3 1500 686C1666.7 696.7 1833.3 686.3 1916.7 681.2L2000 676L2000 1001L1916.7 1001C1833.3 1001 1666.7 1001 1500 1001C1333.3 1001 1166.7 1001 1000 1001C833.3 1001 666.7 1001 500 1001C333.3 1001 166.7 1001 83.3 1001L0 1001Z" fill="#69CCDE"></path><path d="M0 891L83.3 869.7C166.7 848.3 333.3 805.7 500 784.2C666.7 762.7 833.3 762.3 1000 762.7C1166.7 763 1333.3 764 1500 776.5C1666.7 789 1833.3 813 1916.7 825L2000 837L2000 1001L1916.7 1001C1833.3 1001 1666.7 1001 1500 1001C1333.3 1001 1166.7 1001 1000 1001C833.3 1001 666.7 1001 500 1001C333.3 1001 166.7 1001 83.3 1001L0 1001Z" fill="#2E4497"></path></svg>